<?xml version="1.0" encoding="UTF-8"?>
<!DOCTYPE svg PUBLIC "-//W3C//DTD SVG 1.1//EN" "http://www.w3.org/Graphics/SVG/1.1/DTD/svg11.dtd">
<!-- Creator: CorelDRAW X7 -->
<svg xmlns="http://www.w3.org/2000/svg" xml:space="preserve" width="8.4666mm" height="8.4666mm" version="1.1" style="shape-rendering:geometricPrecision; text-rendering:geometricPrecision; image-rendering:optimizeQuality; fill-rule:evenodd; clip-rule:evenodd"
viewBox="0 0 847 847"
 xmlns:xlink="http://www.w3.org/1999/xlink">
 <defs>
  <style type="text/css">
   <![CDATA[
    .fil0 {fill:#AD945E;fill-rule:nonzero}
   ]]>
  </style>
 </defs>
 <g id="Layer_x0020_1">
  <metadata id="CorelCorpID_0Corel-Layer"/>
  <path class="fil0" d="M525 474l0 62c0,0 185,28 212,221l103 0c0,0 -30,-16 -44,-53 -13,-36 -80,-205 -271,-230zm-420 -324l244 0 0 244c-177,-2 -239,-23 -244,-244zm-105 -60c0,0 47,32 48,91 0,5 0,11 0,16 17,219 111,250 301,252l0 251c-1,0 -1,0 -1,0 0,0 -10,53 -38,57l39 0 33 0 26 0 0 -337 0 -300 0 -30 -334 0 -28 0 -46 0zm322 384l0 62c0,0 -185,28 -212,221l-103 0c0,0 30,-16 44,-53 13,-36 80,-205 271,-230zm176 -80l0 -244 243 0c-5,221 -67,242 -243,244zm303 -304l-29 0 -333 0 0 30 0 300 0 337 25 0 34 0 39 0c-28,-4 -38,-57 -38,-57 0,0 -1,0 -1,0l0 -251c190,-2 284,-33 300,-252 1,-5 1,-11 1,-16 1,-59 48,-91 48,-91l-46 0z"/>
 </g>
</svg>
