<svg xmlns="http://www.w3.org/2000/svg" xml:space="preserve" width="1.365in" height="0.792512in" version="1.1" viewBox="0 0 1365 792.51">
 <defs>
  <style type="text/css">
   <![CDATA[
    .fil1 {fill:#C4A359}
    .fil2 {fill:#434242;fill-rule:nonzero}
    .fil0 {fill:#C4A359;fill-rule:nonzero}
   ]]>
  </style>
 </defs>
 <g id="Layer_x0020_1">
  <metadata id="CorelCorpID_0Corel-Layer"/>
  <path class="fil0" d="M712.24 224.63l0 36.1c0,0 108.25,16.5 123.84,129.03l60.14 0c0,0 -17.59,-8.96 -25.4,-30.49 -7.82,-21.57 -46.83,-120.06 -158.57,-134.64zm-245.29 -189.74l142.11 0 0 142.57c-103.09,-0.85 -139.19,-13.29 -142.11,-142.57zm-61.68 -34.89c0,0 27.52,18.54 27.76,53.04 0,3.32 0.24,6.44 0.57,9.4 9.57,128.22 64.5,146.25 175.46,147.65 0,0 -0.37,146.58 -0.54,146.58 0,0 -5.85,31.07 -21.97,33.07l22.51 0 19.65 0 15.08 0 0 -197.06 0 -175.25 0 -17.44 -195.19 0 -16.48 0 -26.85 0zm188.03 224.63l0 36.1c0,0 -108.21,16.5 -123.76,129.03l-60.22 0c0,0 17.64,-8.96 25.5,-30.49 7.76,-21.57 46.83,-120.06 158.48,-134.64zm103.17 -47.17l0 -142.57 142.07 0c-2.82,129.25 -38.94,141.69 -142.07,142.57zm177 -177.45l-16.53 0 -195.11 0 0 17.4 0 175.28 0 197.06 15 0 19.64 0 22.57 0c-16.18,-2 -21.93,-33.1 -21.93,-33.1 -0.21,0 -0.64,-146.54 -0.64,-146.54 111.03,-1.41 165.89,-19.44 175.46,-147.67 0.37,-2.96 0.61,-6.08 0.61,-9.4 0.26,-34.5 27.78,-53.03 27.78,-53.03l-26.85 0z"/>
  <path class="fil1" d="M186.28 761.71l5.24 -16.08 5.61 16.08 -10.85 0zm36.41 25.06c-0.89,0 -1.75,-0.08 -2.59,-0.37 -2.76,-0.83 -4.63,-5.39 -5.54,-7.68 -6.32,-15.79 -12.28,-31.8 -18.29,-47.72 -0.65,-1.64 -1.4,-4.04 -3.47,-4.04 -2.14,0 -2.86,2.68 -3.46,4.31l-17.82 49.14c-0.89,2.57 -2.06,5.86 -5.1,6.24 -0.67,0.11 -1.44,0.14 -2.04,0.14 -1.33,0 -2.53,0.96 -2.53,2.36 0,1.93 1.75,2.47 3.33,2.47 2.96,0 5.93,-0.19 8.87,-0.19 2.02,0 4.06,0.19 6.08,0.19 1.53,0 3.06,-0.72 3.06,-2.47 0,-1.53 -1.28,-2.36 -2.67,-2.36l-0.79 0c-0.18,0 -1.11,-0.14 -1.11,-0.44 0,-1.47 0.5,-3.3 0.97,-4.68l4.53 -13.36 15.35 0 7.07 18.71c-0.43,0.11 -1.18,0.89 -1.18,2.04 0,2.35 2.47,2.36 4.14,2.41 4.13,0.11 8.25,0.17 12.36,0.17 1.56,0 3.46,-0.54 3.46,-2.47 0,-1.54 -1.22,-2.36 -2.63,-2.36z"/>
  <path class="fil1" d="M268.34 763.47c0,-7.22 3.28,-14.68 8.4,-19.68 6.07,-5.9 14.04,-7.72 22.26,-7.72 3.41,0 7,0.26 10.43,0.8 2.26,0.44 4.5,0.92 6.75,1.03 1.56,0 2.65,0.98 2.65,2.57 0,1.21 -0.26,2.71 -0.37,3.83 0,2.18 0.13,4.92 -0.13,6.97 -0.07,1.57 -0.81,3.17 -2.6,3.17 -1.98,0 -2.35,-1.71 -2.35,-3.29 0,-1.85 -0.8,-4.1 -2.25,-5.31 -2.97,-2.48 -8.7,-3.29 -12.41,-3.29 -4.89,0 -10.59,0.7 -14.35,4.18 -4.69,4.36 -5.64,10.03 -5.64,16.18 0,12.87 10.42,22.5 23.07,22.5 3.38,0 7.49,0.08 10.04,-2.58 1.04,-1.04 1.94,-3.24 2.24,-4.82 0.37,-1.31 1.02,-2.29 2.52,-2.29 1.48,0 2.46,1.4 2.46,2.79 0,1.79 -1.18,7.42 -1.74,9.09 -0.47,1.91 -1.07,2.54 -2.87,3.24 -3.54,1.39 -9.22,1.67 -13.1,1.67 -8.83,0 -17.14,-1.72 -24,-7.67 -6.39,-5.54 -9.03,-13.04 -9.03,-21.37z"/>
  <path class="fil1" d="M351.59 770.36c0,1.6 -0.14,12.63 0.94,13.83 0.93,0.97 6.54,1.01 7.79,1.01 1.86,0 5.58,0.17 6.93,-1.42 0.65,-0.78 1,-1.86 1.15,-2.94 0.25,-1.3 1.21,-2.39 2.6,-2.39 1.6,0 2.26,1.48 2.26,2.89 0,1.85 -0.51,5.39 -1.03,7.35 -1.13,3.18 -3.18,3.06 -6.19,3.06 -4.02,0 -8.02,-0.06 -11.99,-0.26 -2.53,-0.04 -5.04,-0.07 -7.57,-0.07 -0.93,0 -1.86,0.02 -2.75,0.03 -1.36,0.04 -2.72,0.17 -4.08,0.17 -1.5,0 -2.96,-0.73 -2.96,-2.43 0,-1.37 1.06,-2.42 2.42,-2.42 0.52,0 1.13,-0.06 1.76,-0.24 0.2,-0.29 0.32,-1.68 0.38,-2.03 0.56,-4.37 0.33,-9.85 0.33,-14.29l0 -11.87c0,-4.61 0.21,-9.74 -0.17,-14.4 -0.04,-1.26 0.13,-1.78 -1.07,-1.97 -0.72,-0.04 -1.46,-0.11 -2.17,-0.11 -1.26,0 -2.46,-1.14 -2.46,-2.43 0,-1.69 1.42,-2.42 2.92,-2.42 2.63,0 5.24,0.15 7.85,0.17 2.54,-0.02 5.1,-0.17 7.65,-0.17 1.5,0 2.89,0.74 2.89,2.42 0,1.24 -1.07,2.33 -2.29,2.33 -0.71,0 -1.44,0.09 -2.07,0.15 -1.15,0.22 -0.89,0.87 -0.94,2.08 -0.32,4.64 -0.14,9.69 -0.14,14.35l0 12.03z"/>
  <path class="fil1" d="M402.35 766.35l4.68 -13.2 4.91 13.2 -9.59 0zm32.63 20.4c-0.72,0 -1.48,-0.06 -2.18,-0.29 -2.53,-0.85 -3.82,-4.02 -4.76,-6.28 -5.54,-13.32 -10.61,-28 -16.62,-40.9 -0.71,-1.51 -1.21,-3.53 -3.26,-3.53 -2.04,0 -2.76,2.22 -3.38,3.81l-16.24 42.09c-0.82,2.14 -1.79,4.65 -4.33,4.99 -0.58,0.11 -1.36,0.11 -1.82,0.11 -1.33,0 -2.39,1.1 -2.39,2.43 0,1.85 1.58,2.41 3.14,2.41 2.31,0 4.63,-0.17 6.93,-0.17 2.06,0 4.14,0.17 6.21,0.17 1.49,0 2.91,-0.71 2.91,-2.41 0,-1.48 -1.17,-2.43 -2.59,-2.43l-0.61 0c-0.14,0 -0.39,0.07 -0.51,0 0,-1.24 0.48,-2.68 0.89,-3.81l3.7 -10.04 14.4 0 5.82 14.61c-0.61,-0.06 -1.17,0.46 -1.17,1.6 0,2.32 2.56,2.29 4.18,2.33 3.67,0.1 7.33,0.14 11.01,0.14 1.5,0 3.41,-0.53 3.41,-2.41 0,-1.5 -1.33,-2.43 -2.72,-2.43z"/>
  <path class="fil1" d="M448.86 790.47c-1.97,-0.99 -2.06,-2.18 -2.06,-4.22 0,-2.39 0.35,-4.76 0.35,-7.06 0,-1.53 0.75,-3.01 2.43,-3.01 1.57,0 2.43,1.15 2.43,2.65 0,0.67 0.03,1.28 0.25,2.04 0.92,4.06 5.54,5.21 9.11,5.21 4.6,0 8.53,-2.11 8.53,-7.14 0,-4.79 -4.6,-7.61 -7.94,-10.17l-3.26 -2.36c-5.15,-3.97 -10.53,-8.88 -10.53,-15.93 0,-9.86 8.11,-14.51 17.09,-14.51 2.42,0 5.26,0.22 7.65,0.83 0.72,0.19 1.24,0.29 1.96,0.29 1.43,0 2.56,0.79 2.56,2.33 0,2.26 -0.33,4.71 -0.33,7.11 0,1.63 -0.46,3.38 -2.44,3.38 -1.51,0 -2.06,-0.96 -2.44,-2.52 -0.07,-0.56 -0.5,-2.11 -0.75,-2.56 -1.25,-1.96 -5.33,-2.46 -7.36,-2.46 -3.39,0 -7.33,1.39 -7.33,5.4 0,4.79 4.57,7.52 8.1,9.89l2 1.35c6.28,4.31 12.08,9.51 12.08,17.72 0,5.64 -2.58,10 -7.24,13.03 -3.33,2.26 -8.08,2.72 -12.03,2.72 -3.43,0 -7.74,-0.49 -10.82,-2.03z"/>
  <path class="fil1" d="M499.71 790.44c-1.87,-1.01 -1.97,-2.18 -1.97,-4.18 0,-2.46 0.15,-4.83 0.47,-7.14 0,-1.53 0.57,-2.94 2.33,-2.94 1.54,0 2.48,1.14 2.48,2.65 0,0.69 0.03,1.36 0.18,2.04 0.93,4.04 5.53,5.21 9.13,5.21 4.58,0 8.47,-2.14 8.47,-7.14 0,-4.82 -4.56,-7.6 -7.97,-10.18l-3.08 -2.35c-5.21,-3.96 -10.63,-8.83 -10.63,-15.93 0,-9.86 8.17,-14.52 17.14,-14.52 2.38,0 5.24,0.22 7.54,0.82 0.68,0.17 1.24,0.31 1.93,0.31 1.46,0 2.65,0.74 2.65,2.33 0,2.28 -0.35,4.7 -0.35,7.11 0,1.58 -0.47,3.37 -2.43,3.37 -1.43,0 -1.97,-0.9 -2.39,-2.08l-0.13 -0.31 0 -0.33c0,-0.46 -0.43,-1.94 -0.68,-2.33 -1.21,-1.94 -5.37,-2.47 -7.36,-2.47 -3.37,0 -7.35,1.4 -7.35,5.4 0,4.72 4.65,7.5 8.13,9.91l1.94 1.33c6.29,4.33 12.07,9.49 12.07,17.72 0,5.58 -2.52,9.98 -7.14,13.04 -3.42,2.25 -8.12,2.72 -12.12,2.72 -3.46,0 -7.64,-0.53 -10.88,-2.07z"/>
  <path class="fil1" d="M613.84 785.99c-13.24,0 -19.93,-11.17 -19.93,-23.57 0,-11.68 5.72,-20.08 17.94,-20.08 12.63,0 18.78,11.03 18.78,22.74 0,10.91 -4.81,20.91 -16.8,20.91zm-1.56 -49.91c-15.76,0 -29.24,11.83 -29.24,28.14 0,16.76 12.36,28.3 28.81,28.3 16.82,0 29.56,-12.37 29.56,-29.37 0,-17.03 -12.94,-27.07 -29.13,-27.07z"/>
  <path class="fil1" d="M671.98 743.67l0 15.96 8.06 -0.04c0.97,-0.02 1.96,0 2.97,-0.11 0.47,-0.04 1.57,-0.06 1.86,-0.4 0.58,-0.82 1.31,-1.47 2.37,-1.47 1.36,0 2.21,1.1 2.21,2.42 0,0.9 -0.58,2.71 -0.68,3.87 -0.12,1.39 -0.19,2.93 -0.19,4.32 0,1.53 -0.75,3.21 -2.5,3.21 -1.48,0 -2.24,-1.04 -2.24,-2.28 -0.08,-0.57 -0.08,-1.37 -0.39,-2.06 -0.18,-0.52 -1.59,-0.83 -2.04,-0.89 -2.67,-0.35 -6.38,-0.19 -9.43,-0.14l0 4.17c0,4.53 -0.21,9.83 0.25,14.28 0.1,0.76 0.07,1.82 1.07,1.97 0.8,0.15 1.94,0.3 2.76,0.3 1.35,0 2.39,1.07 2.39,2.41 0,1.74 -1.44,2.42 -2.96,2.42 -2.87,0 -5.74,-0.15 -8.6,-0.17 -2.26,0 -4.56,0.17 -6.85,0.17 -1.48,0 -2.92,-0.72 -2.92,-2.42 0,-1.32 1.02,-2.41 2.36,-2.41 0.56,0 1.18,-0.15 1.78,-0.24 0.18,-0.31 0.31,-1.72 0.38,-2.06 0.51,-4.35 0.3,-9.78 0.3,-14.25l0 -11.89c0,-4.54 0.22,-9.78 -0.19,-14.36 -0.07,-1.25 0.14,-1.8 -1.07,-2 -0.69,-0.07 -1.43,-0.11 -2.12,-0.11 -1.28,0 -2.49,-1.12 -2.49,-2.43 0,-1.76 1.49,-2.42 3.02,-2.42 2.61,0 5.21,0.15 7.8,0.17 5.71,0 12.2,0.38 17.78,0 0.65,-0.04 2.11,-0.04 2.74,-0.25 0.54,-0.24 0.76,-0.47 1.46,-0.47 1.37,0 2.31,1.15 2.31,2.48 0,0.89 -0.47,2.3 -0.56,3.31 -0.1,1.43 -0.06,3.37 -0.36,4.65 -0.21,1.19 -1.17,2.21 -2.42,2.21 -1.4,0 -2.46,-1.21 -2.46,-2.6 0,-0.5 -0.24,-1.35 -0.42,-1.79 -0.44,-0.68 -2.29,-0.9 -3.02,-0.9l-9.97 -0.15z"/>
  <path class="fil1" d="M759.1 770.21c0,4.37 -0.22,10 0.37,14.39 0.08,0.93 -0.11,1.72 0.99,1.87 0.85,0.17 1.96,0.29 2.8,0.29 1.32,0 2.44,1.07 2.44,2.4 0,1.76 -1.5,2.44 -3.03,2.44 -2.89,0 -5.75,-0.15 -8.63,-0.18 -2.25,0.02 -4.53,0.18 -6.79,0.18 -1.5,0 -2.96,-0.75 -2.96,-2.44 0,-1.37 1.04,-2.4 2.4,-2.4 0.49,0 1.07,-0.07 1.71,-0.26 0.22,-0.28 0.32,-1.57 0.36,-2 0.57,-4.37 0.37,-9.85 0.37,-14.29l0 -11.89c0,-4.65 0.18,-9.69 -0.15,-14.33 -0.04,-0.51 0,-1.79 -0.61,-1.93 -0.56,-0.1 -1.26,-0.21 -1.8,-0.21 -1.31,0 -2.47,-1.11 -2.47,-2.43 0,-1.72 1.4,-2.39 2.91,-2.39 2.35,0 4.7,0.13 7.03,0.14 2.3,-0.01 4.59,-0.14 6.89,-0.14 1.52,0 3.02,0.61 3.02,2.39 0,1.25 -1.15,2.43 -2.41,2.43 -0.51,0 -0.94,0.02 -1.39,0.07 -1.13,0.25 -0.91,0.93 -0.97,2.01 -0.21,4.74 -0.1,9.65 -0.1,14.39l0 11.89z"/>
  <path class="fil1" d="M825.27 739.18l0 -0.42c-0.28,-1.25 -1.11,-2.64 -2.64,-2.64 -0.83,0 -2.22,0.56 -3.19,0.69 -1.67,0.28 -3.61,0.42 -5.28,0.42l-11.25 0 -11.25 0c-1.67,0 -3.61,-0.14 -5.28,-0.42 -0.97,-0.14 -2.36,-0.69 -3.2,-0.69 -1.53,0 -2.36,1.39 -2.64,2.64l0 0.42c-0.28,2.22 -1.39,5.28 -1.39,7.36 0,1.25 0.97,2.36 2.22,2.36 1.25,0 2.08,-0.69 2.5,-1.8 0.28,-0.7 0.41,-1.11 0.83,-1.81 0.97,-1.39 4.17,-1.25 5.56,-1.25l8.06 -0.14 0 26.25c0,4.72 0.14,9.86 -0.28,14.44 0,0.28 -0.14,1.94 -0.69,1.94 -0.56,0.28 -1.11,0.28 -1.53,0.28 -1.39,0 -2.5,0.97 -2.5,2.36 0,1.81 1.53,2.5 3.06,2.5 2.22,0 4.3,-0.28 6.53,-0.28 2.22,0 4.3,0.28 6.53,0.28 1.53,0 3.06,-0.69 3.06,-2.5 0,-1.39 -1.11,-2.36 -2.5,-2.36 -0.42,0 -0.97,0 -1.53,-0.28 -0.56,0 -0.7,-1.67 -0.7,-1.94 -0.41,-4.58 -0.28,-9.72 -0.28,-14.44l0 -26.25 8.06 0.14c1.39,0 4.58,-0.14 5.56,1.25 0.42,0.7 0.56,1.11 0.83,1.81 0.42,1.11 1.25,1.8 2.5,1.8 1.25,0 2.22,-1.11 2.22,-2.36 0,-2.08 -1.11,-5.14 -1.39,-7.36z"/>
  <path class="fil1" d="M841.64 790.49c-2.01,-0.99 -2.07,-2.18 -2.07,-4.22 0,-2.46 0.18,-4.76 0.37,-7.13 0,-1.51 0.68,-2.96 2.4,-2.96 1.57,0 2.44,1.15 2.44,2.65 0,0.67 0.02,1.29 0.22,2.06 0.89,4.02 5.5,5.19 9.03,5.19 4.59,0 8.62,-2.08 8.62,-7.12 0,-4.82 -4.65,-7.63 -8.06,-10.2l-3.09 -2.33c-5.22,-3.96 -10.59,-8.83 -10.59,-15.94 0,-9.86 8.06,-14.52 17.04,-14.52 2.43,0 5.28,0.22 7.63,0.82 0.69,0.17 1.26,0.31 1.97,0.31 1.46,0 2.62,0.75 2.62,2.33 0,2.25 -0.37,4.7 -0.37,7.11 0,1.61 -0.4,3.37 -2.4,3.37 -1.49,0 -2.2,-1.06 -2.42,-2.4 -0.11,-0.61 -0.47,-2.14 -0.76,-2.64 -1.25,-1.96 -5.42,-2.47 -7.42,-2.47 -3.39,0 -7.25,1.4 -7.25,5.39 0,4.76 4.57,7.5 8.06,9.91l1.96 1.33c6.31,4.32 12.07,9.49 12.07,17.72 0,5.58 -2.52,9.98 -7.15,13.04 -3.37,2.24 -8.06,2.72 -12.02,2.72 -3.5,0 -7.69,-0.49 -10.85,-2.03z"/>
  <path class="fil1" d="M955.66 785.99c-13.22,0 -19.98,-11.17 -19.98,-23.57 0,-11.68 5.79,-20.08 18,-20.08 12.62,0 18.78,11.03 18.78,22.74 0,10.96 -4.76,20.91 -16.79,20.91zm-1.51 -49.91c-15.8,0 -29.33,11.78 -29.33,28.14 0,16.82 12.39,28.3 28.86,28.3 16.78,0 29.54,-12.41 29.54,-29.37 0,-17 -12.9,-27.07 -29.07,-27.07z"/>
  <path class="fil1" d="M1050.33 774.5c3.07,-9.57 6.14,-19.25 8.8,-28.89 0.26,-0.98 0.71,-2.37 0.75,-3.59 -0.52,-0.13 -1.5,-0.15 -1.85,-0.15 -1.35,0 -2.47,-1.18 -2.47,-2.53 0,-1.72 1.5,-2.32 2.96,-2.32 2.39,0 4.78,0.15 7.14,0.15 1.85,0 3.7,-0.15 5.57,-0.15 1.37,0 2.78,0.68 2.78,2.26 0,1.42 -1.03,2.58 -2.47,2.58 -0.54,0.02 -1.35,0.08 -1.79,0.19 -1.52,0.56 -2.82,4.63 -3.32,6 -4.42,12.39 -8.11,25.1 -12.61,37.43 -0.8,2.17 -1.93,7.01 -4.79,7.01 -2.32,0 -3.28,-2.93 -3.93,-4.72l-11.83 -32.21c-4.15,10.72 -8.17,21.51 -12.43,32.18 -0.72,1.85 -1.75,4.75 -4.13,4.75 -2.78,0 -3.76,-4.51 -4.44,-6.62l-12.26 -39.88c-0.46,-1.51 -0.78,-3.26 -2.39,-3.83 -0.64,-0.22 -1.91,-0.31 -2.59,-0.31 -1.44,0 -2.39,-1.11 -2.39,-2.53 0,-1.65 1.47,-2.32 2.89,-2.32 2.74,0 5.47,0.15 8.19,0.15 2.37,0 4.78,-0.15 7.17,-0.15 1.49,0 3.15,0.5 3.15,2.32 0,1.42 -1.24,2.53 -2.61,2.53 -0.4,0 -1.17,0.02 -1.53,0.19l-0.02 0.02c0.13,1.33 1.02,4.37 1.31,5.51 2.24,8.81 4.87,17.89 7.52,26.72l12.64 -32.74c0.58,-1.63 1.51,-4.32 3.61,-4.32 2.03,0 2.96,2.78 3.57,4.39l11.82 32.86z"/>
  <path class="fil1" d="M1131.48 775.51l-0.63 -28.97c0,-1.07 0.32,-4.15 -1.06,-4.41 -0.93,-0.17 -2.08,-0.28 -3.03,-0.28 -1.47,0 -2.35,-1.15 -2.35,-2.54 0,-1.83 1.65,-2.31 3.14,-2.31 2.42,0 4.83,0.17 7.22,0.17 1.96,0 3.94,-0.17 5.92,-0.17 1.46,0 3.03,0.54 3.03,2.31 0,1.41 -1.25,2.54 -2.64,2.54 -0.46,0 -0.87,0.03 -1.28,0.08 -1.4,0.32 -0.93,2.78 -0.93,4.06l-0.08 39.39c0,1.96 0.56,6.68 -2.41,6.68 -2.04,0 -5.07,-3.25 -6.35,-4.46 -4.56,-3.25 -13.98,-13.97 -18.19,-18.42 -4.81,-5.06 -9.86,-10.18 -14.61,-15.39l0.62 26.72c0.03,1.06 -0.12,5.54 1.35,5.93 0.87,0.24 2,0.32 2.91,0.32 1.31,0 2.39,1.1 2.39,2.4 0,1.78 -1.57,2.44 -3.08,2.44 -2.44,0 -4.9,-0.19 -7.31,-0.19 -2.18,0 -4.4,0.19 -6.61,0.19 -1.54,0 -3.01,-0.65 -3.01,-2.44 0,-1.29 1.11,-2.4 2.39,-2.4 0.72,0 1.61,-0.07 2.46,-0.35 0.58,-0.6 0.56,-5.76 0.56,-6.58l0 -38.5c0,-1.92 0.06,-5.26 2.72,-5.26 1.63,0 2.94,1.53 3.97,2.57 7.38,7.14 14.67,15.52 21.85,22.97 4.39,4.58 8.67,9.29 13.03,13.9z"/>
  <path class="fil2" d="M1348.04 511.36c2.85,0 5.63,0.74 8.35,2.19 2.71,1.46 4.82,3.56 6.33,6.28 1.52,2.72 2.28,5.56 2.28,8.51 0,2.92 -0.75,5.74 -2.24,8.43 -1.5,2.71 -3.59,4.79 -6.28,6.29 -2.69,1.48 -5.52,2.24 -8.44,2.24 -2.94,0 -5.76,-0.75 -8.46,-2.24 -2.7,-1.5 -4.78,-3.58 -6.28,-6.29 -1.5,-2.7 -2.25,-5.52 -2.25,-8.43 0,-2.96 0.75,-5.79 2.28,-8.51 1.53,-2.72 3.65,-4.82 6.36,-6.28 2.71,-1.46 5.48,-2.19 8.35,-2.19zm0 2.81c-2.39,0 -4.72,0.62 -6.97,1.85 -2.25,1.21 -4.01,2.96 -5.29,5.24 -1.28,2.28 -1.92,4.64 -1.92,7.09 0,2.44 0.63,4.78 1.89,7.03 1.25,2.24 3,3.99 5.25,5.24 2.24,1.26 4.59,1.89 7.04,1.89 2.44,0 4.79,-0.63 7.04,-1.89 2.25,-1.25 4,-3 5.24,-5.24 1.25,-2.25 1.87,-4.58 1.87,-7.03 0,-2.46 -0.64,-4.82 -1.9,-7.09 -1.28,-2.28 -3.04,-4.03 -5.31,-5.24 -2.26,-1.22 -4.58,-1.85 -6.94,-1.85zm-7.46 23.54l0 -18.24 6.28 0c2.15,0 3.71,0.17 4.67,0.5 0.96,0.35 1.72,0.93 2.3,1.76 0.57,0.85 0.85,1.74 0.85,2.68 0,1.32 -0.47,2.49 -1.43,3.47 -0.96,0.98 -2.22,1.54 -3.81,1.67 0.65,0.26 1.17,0.58 1.56,0.97 0.74,0.71 1.64,1.92 2.69,3.61l2.22 3.57 -3.57 0 -1.63 -2.87c-1.28,-2.26 -2.31,-3.68 -3.1,-4.25 -0.54,-0.41 -1.32,-0.62 -2.36,-0.61l-1.74 0 0 7.74 -2.94 0zm2.94 -10.26l3.58 0c1.71,0 2.87,-0.26 3.5,-0.76 0.63,-0.51 0.94,-1.18 0.94,-2.01 0,-0.54 -0.15,-1.03 -0.46,-1.44 -0.3,-0.43 -0.71,-0.75 -1.25,-0.94 -0.53,-0.21 -1.52,-0.32 -2.96,-0.32l-3.36 0 0 5.48z"/>
  <path class="fil2" d="M233.88 583.98c-3.29,2.39 -5.56,3.1 -12.72,3.1 -4.44,0 -9.85,-0.57 -13.61,-1.79 -1.33,-0.54 -1.65,-1.31 -1.65,-3.25l0 -54.96c0,-1.43 0.32,-2.17 1.65,-2.53 1.78,-0.56 5,-0.71 9.54,-0.71 10.49,0 27.32,7.42 27.32,33.04 0,14.85 -5.14,23.15 -10.53,27.09zm72.02 64.72c-1.36,0 -3.02,-0.21 -5.02,-0.57 -2.69,-0.51 -10.04,-1.78 -20.01,-12.26 -10.54,-11.21 -22.96,-27.28 -38.86,-47.51 18.04,-14.83 23.57,-27.13 23.57,-40.5 0,-12.09 -7.14,-21.32 -12.18,-24.77 -9.67,-6.67 -21.65,-7.76 -32.94,-7.76 -5.54,0 -19.18,0.56 -25.29,0.56 -3.78,0 -14.97,-0.56 -24.6,-0.56 -2.65,0 -3.87,0.39 -3.87,1.61 0,1.33 1.11,1.67 3,1.67 2.53,0 5.58,0.18 7.08,0.53 5.86,1.26 7.25,4.19 7.67,10.31 0.26,5.74 0.26,10.82 0.26,38.33l0 31.81c0,16.61 0,30.85 -0.87,38.47 -0.58,5.24 -1.56,9.15 -5.11,9.92 -1.68,0.39 -3.76,0.74 -6.5,0.74 -2.17,0 -2.81,0.53 -2.81,1.46 0,1.25 1.15,1.76 3.6,1.76 7.18,0 18.37,-0.51 21.78,-0.51 2.71,0 15.96,0.51 26.37,0.51 2.35,0 3.56,-0.51 3.56,-1.76 0,-0.93 -0.74,-1.46 -2.08,-1.46 -2.18,0 -6.15,-0.35 -8.87,-0.74 -5.39,-0.76 -6.41,-4.68 -6.99,-9.92 -0.87,-7.63 -0.87,-21.86 -0.87,-38.68l0 -2.54c0,-1.08 0.54,-1.41 1.46,-1.41l15.65 0.33c1.19,0 2.21,0.17 3.13,1.26 2.37,2.71 10.51,14.97 17.76,24.96 10,13.9 16.83,22.4 24.58,26.53 4.65,2.53 9.18,3.43 19.13,3.43l17.07 0c2.14,0 3.42,-0.3 3.42,-1.76 0,-0.93 -0.74,-1.46 -2.19,-1.46z"/>
  <path class="fil2" d="M413.03 595.74l-32.94 0c-0.74,0 -0.92,-0.5 -0.74,-1.26l16.56 -44.46c0.1,-0.7 0.53,-1.63 1.07,-1.63 0.53,0 0.67,0.93 0.82,1.63l16.15 44.68c0.19,0.54 0,1.04 -0.92,1.04zm60.58 52.96c-2.13,0 -4.82,-0.21 -7.5,-0.71 -3.79,-0.92 -8.93,-3.44 -15.72,-19.7 -11.52,-27.46 -40.18,-101.22 -44.53,-111.14 -1.76,-4.17 -2.88,-5.79 -4.49,-5.79 -1.75,0 -2.87,1.93 -4.94,7.24l-45.01 113.46c-3.56,9.06 -6.96,15.17 -15.25,16.29 -1.4,0.14 -3.89,0.35 -5.58,0.35 -1.4,0 -2.08,0.36 -2.08,1.46 0,1.46 1.02,1.79 3.4,1.79 9.31,0 19.15,-0.56 21.14,-0.56 5.54,0 13.17,0.56 18.97,0.56 1.98,0 3.03,-0.33 3.03,-1.79 0,-1.1 -0.54,-1.46 -2.67,-1.46l-2.68 0c-5.58,0 -7.18,-2.33 -7.18,-5.61 0,-2.17 0.93,-6.51 2.61,-11.03l9.76 -25.83c0.29,-1.1 0.68,-1.43 1.56,-1.43l40.01 0c0.93,0 1.42,0.33 1.8,1.24l14.33 38.33c0.87,2.17 -0.4,3.76 -1.65,4.13 -1.75,0.21 -2.51,0.57 -2.51,1.67 0,1.24 2.22,1.24 5.37,1.46 14.37,0.33 27.42,0.33 33.9,0.33 6.65,0 8.26,-0.33 8.26,-1.79 0,-1.26 -0.87,-1.46 -2.35,-1.46z"/>
  <path class="fil2" d="M554.27 516.06c0.49,-3.06 1.61,-4.68 2.96,-4.68 1.46,0 2.58,0.89 4.85,5.56l48.92 101.96 48.85 -103.19c1.4,-2.92 2.28,-4.32 3.89,-4.32 1.61,0 2.68,1.79 3.25,5.56l16.31 111.68c1.6,11.39 3.39,16.65 8.78,18.28 5.15,1.59 8.7,1.79 11.07,1.79 1.61,0 2.82,0.2 2.82,1.26 0,1.44 -2.04,1.99 -4.61,1.99 -4.46,0 -29.18,-0.54 -36.36,-1.07 -4.11,-0.37 -5.14,-0.92 -5.14,-1.98 0,-0.9 0.69,-1.46 1.9,-1.99 1.07,-0.35 1.61,-2.72 0.92,-7.76l-10.71 -79.53 -0.71 0 -39.12 82.04c-4.15,8.5 -5,10.1 -6.61,10.1 -1.65,0 -3.4,-3.6 -6.3,-8.97 -4.24,-8.33 -18.49,-35.97 -20.61,-41.06 -1.61,-3.8 -12.33,-26.56 -18.64,-40.1l-0.68 0 -9.3 71.92c-0.31,3.19 -0.56,5.59 -0.56,8.5 0,3.39 2.37,5.06 5.35,5.78 3.3,0.67 5.8,0.87 7.51,0.87 1.52,0 2.78,0.39 2.78,1.26 0,1.68 -1.71,1.99 -4.32,1.99 -7.53,0 -15.63,-0.54 -18.85,-0.54 -3.39,0 -12.03,0.54 -17.71,0.54 -1.82,0 -3.2,-0.31 -3.2,-1.99 0,-0.87 1.02,-1.26 2.72,-1.26 1.56,0 2.76,0 5.44,-0.54 5.04,-1.06 6.48,-8.14 7.32,-14.25l17.8 -117.83z"/>
  <path class="fil2" d="M773.8 567.77c0,-27.5 0,-32.58 -0.38,-38.32 -0.4,-6.11 -1.8,-9.06 -7.72,-10.32 -1.42,-0.36 -4.51,-0.56 -7.03,-0.56 -1.94,0 -3.06,-0.32 -3.06,-1.64 0,-1.24 1.29,-1.6 3.97,-1.6 9.54,0 20.78,0.52 26.14,0.52 4.31,0 15.64,-0.52 22.07,-0.52 2.68,0 3.98,0.36 3.98,1.6 0,1.32 -1.11,1.64 -2.89,1.64 -2.04,0 -3.04,0.2 -5.22,0.56 -4.81,0.88 -6.24,3.96 -6.63,10.32 -0.35,5.74 -0.35,10.82 -0.35,38.32l0 25.26c0,26.22 5.18,37.22 13.97,44.48 8.03,6.65 16.31,7.36 22.42,7.36 7.86,0 17.53,-2.53 24.65,-9.75 9.89,-9.94 10.44,-26.19 10.44,-44.8l0 -22.56c0,-27.5 0,-32.58 -0.27,-38.32 -0.47,-6.11 -1.87,-9.06 -7.82,-10.32 -1.43,-0.36 -4.5,-0.56 -6.47,-0.56 -1.96,0 -3.01,-0.32 -3.01,-1.64 0,-1.24 1.3,-1.6 3.78,-1.6 9.13,0 20.47,0.52 20.59,0.52 2.18,0 13.41,-0.52 20.46,-0.52 2.48,0 3.74,0.36 3.74,1.6 0,1.32 -0.97,1.64 -3.24,1.64 -1.94,0 -2.96,0.2 -5.19,0.56 -4.81,0.88 -6.22,3.96 -6.65,10.32 -0.31,5.74 -0.31,10.82 -0.31,38.32l0 19.32c0,20.03 -1.96,41.35 -17.03,54.39 -12.76,11 -25.57,12.98 -37.22,12.98 -9.54,0 -26.72,-0.56 -39.78,-12.44 -9.25,-8.33 -15.96,-21.72 -15.96,-47.89l0 -26.36z"/>
  <path class="fil2" d="M1005.22 575.7l0.92 0c6.11,-6.68 32.28,-33.61 37.46,-39.75 5.04,-6 8.97,-10.52 8.97,-13.57 0,-1.97 -0.74,-3.25 -2.53,-3.59 -1.58,-0.36 -2.32,-0.75 -2.32,-1.85 0,-1.24 0.92,-1.59 2.86,-1.59 3.79,0 13.64,0.53 18.44,0.53 5.61,0 15.47,-0.53 21,-0.53 1.8,0 3.01,0.36 3.01,1.59 0,1.32 -0.83,1.65 -2.67,1.65 -2.51,0 -7,0.74 -10.37,2 -5.5,2.18 -11.65,5.93 -19.32,13.6 -5.57,5.35 -32.67,32.47 -38.76,38.97 6.43,8.51 41.62,46.59 48.61,53.33 7.86,7.57 15.96,15.71 25.61,19.5 5.31,2.15 8.93,2.7 11.11,2.7 1.22,0 2.29,0.39 2.29,1.46 0,1.25 -0.87,1.79 -4.24,1.79l-15.65 0c-5.39,0 -8.6,0 -12.38,-0.3 -9.71,-0.96 -14.53,-4.92 -22.17,-11.79 -7.9,-7.07 -43.24,-48.78 -46.87,-54.02l-2.1 -2.72 -0.92 0 0 16.47c0,16.61 0,30.85 0.54,38.61 0.37,5.11 2.03,9.03 6.48,9.79 2.53,0.36 6.47,0.71 8.78,0.71 1.47,0 2.42,0.56 2.42,1.46 0,1.25 -1.53,1.79 -3.47,1.79 -10.04,0 -21.36,-0.54 -25.82,-0.54 -4.17,0 -15.43,0.54 -22.61,0.54 -2.3,0 -3.54,-0.54 -3.54,-1.79 0,-0.9 0.72,-1.46 2.82,-1.46 2.76,0 4.85,-0.35 6.5,-0.71 3.58,-0.76 4.46,-4.68 5.19,-9.92 0.88,-7.64 0.88,-21.87 0.88,-38.48l0 -31.81c0,-27.5 0,-32.58 -0.36,-38.32 -0.28,-6.11 -1.72,-9.04 -7.64,-10.32 -1.42,-0.35 -4.57,-0.54 -7.09,-0.54 -1.98,0 -3.03,-0.33 -3.03,-1.65 0,-1.24 1.28,-1.59 3.96,-1.59 9.48,0 20.75,0.53 25.07,0.53 4.31,0 15.63,-0.53 21.64,-0.53 2.58,0 3.79,0.36 3.79,1.59 0,1.32 -1.02,1.65 -2.44,1.65 -1.75,0 -2.82,0.2 -5.04,0.54 -4.8,0.89 -6.25,3.97 -6.65,10.32 -0.38,5.74 -0.38,10.82 -0.38,38.32l0 7.93z"/>
  <path class="fil2" d="M1262.25 572.79c0.47,0 1.06,-0.33 1.06,-1.25l0 -3.76c0,-27.51 0,-32.6 -0.36,-38.32 -0.36,-6.11 -1.8,-9.06 -7.78,-10.32 -1.42,-0.36 -4.43,-0.56 -6.94,-0.56 -1.93,0 -3.04,-0.32 -3.04,-1.64 0,-1.24 1.25,-1.59 3.76,-1.59 9.71,0 21.03,0.51 25.83,0.51 4.31,0 15.56,-0.51 22.52,-0.51 2.51,0 3.82,0.36 3.82,1.59 0,1.32 -1.07,1.64 -3.25,1.64 -1.4,0 -2.96,0.19 -5.18,0.56 -4.76,0.9 -6.28,3.96 -6.67,10.32 -0.32,5.72 -0.32,10.81 -0.32,38.32l0 31.81c0,16.61 0,30.85 0.87,38.61 0.52,5.1 1.64,9.03 6.97,9.78 2.52,0.39 6.5,0.72 9.22,0.72 1.94,0 2.8,0.54 2.8,1.46 0,1.24 -1.42,1.79 -3.58,1.79 -11.65,0 -22.9,-0.56 -27.94,-0.56 -4.07,0 -15.39,0.56 -22.43,0.56 -2.5,0 -3.7,-0.56 -3.7,-1.79 0,-0.92 0.7,-1.46 2.82,-1.46 2.74,0 4.86,-0.33 6.47,-0.72 3.57,-0.75 4.44,-4.68 5.19,-9.9 0.9,-7.64 0.9,-21.87 0.9,-38.48l0 -15.96c0,-0.71 -0.58,-1.04 -1.06,-1.04l-68.54 0c-0.5,0 -1.03,0.17 -1.03,1.04l0 15.96c0,16.61 0,30.85 0.91,38.61 0.54,5.1 1.61,9.03 6.98,9.78 2.49,0.39 6.47,0.72 9.14,0.72 1.94,0 2.82,0.54 2.82,1.46 0,1.24 -1.38,1.79 -3.5,1.79 -11.61,0 -22.96,-0.56 -27.94,-0.56 -4.13,0 -15.44,0.56 -22.63,0.56 -2.29,0 -3.54,-0.56 -3.54,-1.79 0,-0.92 0.64,-1.46 2.82,-1.46 2.68,0 4.85,-0.33 6.41,-0.72 3.68,-0.75 4.5,-4.68 5.24,-9.9 0.92,-7.64 0.92,-21.87 0.92,-38.48l0 -31.81c0,-27.51 0,-32.6 -0.36,-38.32 -0.41,-6.11 -1.82,-9.06 -7.78,-10.32 -1.37,-0.36 -4.43,-0.56 -6.94,-0.56 -1.98,0 -3.08,-0.32 -3.08,-1.64 0,-1.24 1.29,-1.59 3.8,-1.59 9.7,0 21.02,0.51 25.81,0.51 4.32,0 15.67,-0.51 22.65,-0.51 2.4,0 3.75,0.36 3.75,1.59 0,1.32 -1.11,1.64 -3.3,1.64 -1.41,0 -3.04,0.19 -5.18,0.56 -4.81,0.9 -6.22,3.96 -6.65,10.32 -0.33,5.72 -0.33,10.81 -0.33,38.32l0 3.76c0,0.92 0.53,1.25 1.03,1.25l68.54 0z"/>
  <path class="fil2" d="M18.18 567.77c0,-27.5 0,-32.58 -0.47,-38.32 -0.36,-6.11 -1.75,-9.06 -7.63,-10.32 -1.47,-0.36 -4.43,-0.56 -7.04,-0.56 -1.93,0 -3.04,-0.32 -3.04,-1.64 0,-1.24 1.29,-1.6 3.88,-1.6 9.59,0 20.82,0.52 25.94,0.52 7.32,0 17.72,-0.52 25.92,-0.52 22.38,0 30.42,7.57 33.39,10.29 3.92,3.82 8.97,11.93 8.97,21.52 0,25.64 -18.64,43.74 -44.11,43.74 -0.97,0 -2.92,0 -3.75,-0.21 -0.98,-0.14 -2.12,-0.35 -2.12,-1.61 0,-1.43 1.14,-1.97 4.9,-1.97 10.06,0 24.08,-11.39 24.08,-29.83 0,-5.96 -0.5,-18.07 -10.54,-27.1 -6.47,-5.96 -13.78,-7.07 -17.94,-7.07 -2.68,0 -5.36,0.25 -6.99,0.75 -0.92,0.36 -1.43,1.43 -1.43,3.44l0 72.29c0,16.61 0,30.85 0.83,38.61 0.6,5.09 1.67,9.03 7.09,9.79 2.48,0.37 6.37,0.71 9.09,0.71 1.94,0 2.87,0.54 2.87,1.46 0,1.25 -1.54,1.79 -3.37,1.79 -11.89,0 -23.18,-0.54 -27.8,-0.54 -4.21,0 -15.43,0.54 -22.61,0.54 -2.41,0 -3.64,-0.54 -3.64,-1.79 0,-0.92 0.78,-1.46 3,-1.46 2.68,0 4.81,-0.33 6.42,-0.71 3.53,-0.76 4.42,-4.7 5.14,-9.92 0.97,-7.64 0.97,-21.87 0.97,-38.49l0 -31.8z"/>
 </g>
</svg>
